<svg width="518" height="189" viewBox="0 0 518 189" fill="none" xmlns="http://www.w3.org/2000/svg">
<rect y="-56.4502" width="362.307" height="290.956" rx="24.0902" transform="rotate(-32.4779 0 -56.4502)" fill="#E6D6BF"/>
<path d="M370.086 -134.17C377.35 -137.019 385.556 -136.058 391.964 -131.607L480.458 -70.1425C487.547 -65.2189 491.347 -56.7906 490.343 -48.2182L478.891 49.5447C477.887 58.117 472.242 65.439 464.207 68.591L363.903 107.94C356.64 110.789 348.434 109.828 342.026 105.377L253.531 43.9124C246.442 38.9888 242.642 30.5605 243.646 21.9882L255.098 -75.7747C256.103 -84.3471 261.747 -91.6691 269.782 -94.8211L370.086 -134.17Z" fill="#BD3D3D"/>
<rect x="55.624" y="-91.8564" width="296.371" height="243.475" rx="24.0902" transform="rotate(-32.4779 55.624 -91.8564)" fill="#392C19"/>
<path d="M218.583 76.343L191.905 49.3845C188.052 45.4904 188.085 39.2095 191.979 35.3561L211.493 16.0474C215.403 12.1792 221.713 12.2298 225.559 16.1602L244.356 35.3651C248.141 39.2328 248.128 45.4208 244.326 49.2722L230.911 62.8613C227.045 66.7778 220.729 66.7982 216.838 62.9067L203.335 49.4038C199.439 45.5081 199.464 39.1841 203.391 35.3197L211.512 27.3275C215.417 23.4844 221.698 23.5351 225.541 27.4406L233.367 35.3947C237.158 39.2478 237.166 45.4269 233.385 49.2899L230.986 51.7407C227.096 55.7156 220.698 55.7156 216.808 51.7407L212.959 47.8083C210.005 44.7896 210.105 39.9104 213.14 36.9729V36.9729C216.127 34.0821 220.926 34.1291 223.815 37.118V37.118C226.629 40.0287 226.635 44.644 223.829 47.5622L220 51.5443" stroke="#E6D6BF" stroke-width="2.1256"/>
</svg>
