<svg width="384" height="319" viewBox="0 0 384 319" fill="none" xmlns="http://www.w3.org/2000/svg">
<mask id="mask0_9_8301" style="mask-type:alpha" maskUnits="userSpaceOnUse" x="0" y="0" width="384" height="319">
<path d="M1.15825 207.019C12.2108 144.483 54.1912 65.0508 111.996 17.9009C137.785 4.39246 203.608 -14.5194 260.589 17.9009C317.57 50.3212 383.393 180.002 383.393 207.019C383.393 234.036 370.5 273.947 310.939 301.578C251.379 329.209 98.1734 316.929 79.7527 311.922C61.3321 306.916 -9.89425 269.555 1.15825 207.019Z" fill="#E8D6BC"/>
</mask>
<g mask="url(#mask0_9_8301)">
<path d="M1.81597 207.019C12.8685 144.483 54.8489 65.0508 112.654 17.9009C138.443 4.39246 204.266 -14.5194 261.247 17.9009C318.228 50.3212 384.051 180.002 384.051 207.019C384.051 234.036 371.157 273.947 311.597 301.578C252.037 329.209 98.8311 316.929 80.4105 311.922C61.9898 306.916 -9.23653 269.555 1.81597 207.019Z" fill="#E8D6BC"/>
<path d="M176.93 126.942C180.749 123.912 191.183 119.922 206.528 125.627" stroke="#2B261F" stroke-width="4.33205"/>
<mask id="mask1_9_8301" style="mask-type:alpha" maskUnits="userSpaceOnUse" x="78" y="88" width="102" height="74">
<path d="M164.705 99.962C146.952 87.8736 122.976 88.176 98.2123 99.2911C79.6947 107.603 75.7798 143.311 88.5567 150.361C113.049 163.874 141.025 161.13 167.604 145.307C182.068 136.696 179.372 109.949 164.705 99.962Z" fill="#D9D9D9" stroke="black" stroke-width="4.33205"/>
</mask>
<g mask="url(#mask1_9_8301)">
<path d="M164.705 99.962C146.952 87.8736 122.976 88.176 98.2123 99.2911C79.6947 107.603 75.7798 143.311 88.5567 150.361C113.049 163.874 141.025 161.13 167.604 145.307C182.068 136.696 179.372 109.949 164.705 99.962Z" stroke="#2B261F" stroke-width="4.33205"/>
<mask id="mask2_9_8301" style="mask-type:alpha" maskUnits="userSpaceOnUse" x="97" y="114" width="71" height="46">
<path d="M105.276 129.787C98.8507 138.192 97.0156 147.196 97.0156 159.165C120.267 159.527 161.262 160.035 166.769 159.165C167.678 159.021 170.742 140.169 160.344 128.699C134.312 99.9835 111.701 121.381 105.276 129.787Z" fill="#2B261F"/>
</mask>
<g mask="url(#mask2_9_8301)">
<path d="M105.276 129.787C98.8507 138.192 97.0156 147.196 97.0156 159.165C120.267 159.527 161.262 160.035 166.769 159.165C167.678 159.021 170.742 140.169 160.344 128.699C134.312 99.9835 111.701 121.381 105.276 129.787Z" fill="white"/>
<path d="M121.667 129.063C114.875 138.022 110.412 151.977 110.719 158.792C130.484 162.125 166.191 155.994 168.258 155.67C170.84 155.265 160.977 127.355 149.301 123.181C147.682 122.603 130.158 117.863 121.667 129.063Z" fill="#2B261F"/>
<circle cx="137.909" cy="136.927" r="4.54375" fill="white"/>
<circle cx="132.457" cy="144.197" r="2.72625" fill="white"/>
</g>
<path d="M164.705 99.962C146.952 87.8736 122.976 88.176 98.2123 99.2911C79.6947 107.603 75.7798 143.311 88.5567 150.361C113.049 163.874 141.025 161.13 167.604 145.307C182.068 136.696 179.372 109.949 164.705 99.962Z" stroke="#2B261F" stroke-width="4.33205"/>
</g>
<mask id="mask3_9_8301" style="mask-type:alpha" maskUnits="userSpaceOnUse" x="203" y="86" width="102" height="72">
<path d="M215.4 101.65C231.352 87.3983 255.009 84.6544 280.813 92.5427C300.109 98.4414 308.499 133.387 296.808 142.006C274.397 158.528 246.492 159.357 218.301 147.026C202.96 140.315 202.22 113.425 215.4 101.65Z" fill="#D9D9D9" stroke="#2B261F" stroke-width="4.33205"/>
</mask>
<g mask="url(#mask3_9_8301)">
<path d="M215.4 101.65C231.352 87.3983 255.009 84.6544 280.813 92.5427C300.109 98.4414 308.499 133.387 296.808 142.006C274.397 158.528 246.492 159.357 218.301 147.026C202.96 140.315 202.22 113.425 215.4 101.65Z" stroke="#2B261F" stroke-width="4.33205"/>
<mask id="mask4_9_8301" style="mask-type:alpha" maskUnits="userSpaceOnUse" x="221" y="114" width="66" height="42">
<path d="M228.638 128.524C222.734 136.248 221.048 144.521 221.048 155.52C242.414 155.853 280.085 156.319 285.145 155.52C285.981 155.387 288.797 138.064 279.242 127.524C255.32 101.137 234.543 120.8 228.638 128.524Z" fill="#2B261F"/>
</mask>
<g mask="url(#mask4_9_8301)">
<path d="M228.638 128.524C222.734 136.248 221.048 144.521 221.048 155.52C242.414 155.853 280.085 156.319 285.145 155.52C285.981 155.387 288.797 138.064 279.242 127.524C255.32 101.137 234.543 120.8 228.638 128.524Z" fill="white"/>
<path d="M243.602 128.977C237.442 136.859 233.447 149.173 233.771 155.204C251.883 158.278 284.525 153.083 286.414 152.81C288.775 152.468 279.569 127.717 268.857 123.951C267.371 123.429 251.301 119.125 243.602 128.977Z" fill="#2B261F"/>
<circle cx="258.626" cy="135.085" r="4.17534" fill="white"/>
<circle cx="253.615" cy="141.765" r="2.5052" fill="white"/>
</g>
<path d="M215.4 101.65C231.352 87.3983 255.009 84.6544 280.813 92.5427C300.109 98.4414 308.499 133.387 296.808 142.006C274.397 158.528 246.492 159.357 218.301 147.026C202.96 140.315 202.22 113.425 215.4 101.65Z" stroke="#2B261F" stroke-width="4.33205"/>
</g>
<path d="M158.133 217.704C156.625 217.183 154.981 217.982 154.459 219.49C153.938 220.997 154.738 222.642 156.245 223.163L158.133 217.704ZM156.245 223.163C173.517 229.133 216.573 232.926 252.437 201.103L248.603 196.782C214.715 226.853 174.018 223.195 158.133 217.704L156.245 223.163Z" fill="black"/>
<path d="M238.24 196.487C248.305 202.013 262.801 196.487 262.801 196.487" stroke="black" stroke-width="7.22008" stroke-linecap="round"/>
<path d="M157.383 177.898C150.86 189.494 153.571 205.003 157.189 220.433C174.825 222.799 215.736 227.575 202.626 217.977C189.517 208.379 178.645 181.211 176.779 177.898C174.913 174.584 163.906 166.302 157.383 177.898Z" fill="#CD5050" stroke="black" stroke-width="4.33205"/>
<mask id="path-23-inside-1_9_8301" fill="white">
<path d="M172.008 205.331C174.068 206.617 179.796 220.488 182.631 222.329C182.011 224.076 180.281 224.869 178.349 223.79C175.633 218.917 169.947 204.045 172.008 205.331Z"/>
</mask>
<path d="M172.008 205.331C174.068 206.617 179.796 220.488 182.631 222.329C182.011 224.076 180.281 224.869 178.349 223.79C175.633 218.917 169.947 204.045 172.008 205.331Z" fill="black"/>
<path d="M182.631 222.329L186.713 223.78L187.858 220.558L184.991 218.696L182.631 222.329ZM178.349 223.79L174.565 225.899L175.163 226.972L176.236 227.571L178.349 223.79ZM169.714 209.006C169.163 208.662 169.048 208.357 169.408 208.864C169.651 209.206 169.976 209.725 170.386 210.435C171.206 211.858 172.152 213.671 173.201 215.65C174.217 217.568 175.322 219.629 176.371 221.341C176.896 222.197 177.453 223.042 178.02 223.775C178.528 224.431 179.288 225.324 180.272 225.962L184.991 218.696C185.265 218.874 185.227 218.931 184.871 218.471C184.574 218.087 184.202 217.537 183.758 216.814C182.871 215.366 181.885 213.534 180.857 211.594C179.861 209.715 178.812 207.704 177.891 206.106C177.429 205.306 176.947 204.516 176.471 203.847C176.113 203.342 175.367 202.322 174.302 201.656L169.714 209.006ZM178.549 220.878C178.597 220.745 178.834 220.298 179.461 220.063C180.115 219.818 180.531 220.046 180.462 220.008L176.236 227.571C178.099 228.613 180.346 228.984 182.503 228.175C184.633 227.377 186.045 225.66 186.713 223.78L178.549 220.878ZM182.133 221.681C180.944 219.547 178.936 214.866 177.462 210.781C176.724 208.735 176.2 207.058 175.977 206.05C175.828 205.378 175.943 205.555 175.876 206.089C175.87 206.138 175.708 208.005 173.817 209.058C171.691 210.242 169.872 209.105 169.714 209.006L174.302 201.656C173.886 201.397 171.87 200.225 169.602 201.488C167.569 202.62 167.321 204.679 167.278 205.021C167.139 206.141 167.381 207.307 167.518 207.925C167.866 209.497 168.547 211.601 169.312 213.721C170.845 217.969 173.039 223.16 174.565 225.899L182.133 221.681Z" fill="black" mask="url(#path-23-inside-1_9_8301)"/>
<ellipse cx="130.16" cy="48.5262" rx="37.4552" ry="15.9645" transform="rotate(-17.3756 130.16 48.5262)" fill="#F8EBD8"/>
<ellipse cx="34.385" cy="233.428" rx="19.924" ry="14.459" transform="rotate(-17.3756 34.385 233.428)" fill="#BD3D3D"/>
<ellipse cx="291.045" cy="194.131" rx="19.924" ry="14.459" transform="rotate(-17.3756 291.045 194.131)" fill="#BD3D3D"/>
<ellipse cx="286.496" cy="312.343" rx="148.58" ry="78.2401" transform="rotate(160.563 286.496 312.343)" fill="#F8EBD8"/>
<path d="M137.234 80.8144L90.0729 80.6547L101.129 83.17L98.6146 83.8573L109.726 85.1708C105.997 85.2671 98.297 85.3683 97.3208 85.0022C96.3446 84.6362 88.5336 87.141 88.4845 88.2093C90.1667 87.6175 94.2707 86.5482 97.2287 87.0053C100.187 87.4624 107.545 87.6131 110.854 87.6313C107.314 88.1378 100.35 89.3165 100.816 89.9803C101.398 90.8099 112.001 89.6913 111.381 89.6628C110.762 89.6344 114.533 88.6033 121.401 87.7145C126.895 87.0035 142.793 85.8873 150.056 85.4181L140.146 84.9628L152.662 82.7277L123.498 82.592L137.234 80.8144Z" fill="#2B261F"/>
<path d="M242.514 79.6663L289.404 74.6222L278.669 78.2692L281.24 78.6924L270.325 81.1498C274.043 80.8594 281.713 80.1623 282.646 79.6972C283.579 79.232 291.607 80.9142 291.767 81.9717C290.032 81.5573 285.84 80.9189 282.945 81.6799C280.05 82.4409 272.747 83.353 269.458 83.714C273.032 83.8509 280.08 84.302 279.685 85.0105C279.192 85.896 268.531 85.8816 269.144 85.7891C269.757 85.6967 265.899 85.0618 258.976 84.8892C253.438 84.7511 237.51 85.2878 230.238 85.5733L240.047 84.094L227.367 83.1674L256.36 80.0115L242.514 79.6663Z" fill="#2B261F"/>
</g>
</svg>
