<svg width="60" height="60" viewBox="0 0 60 60" fill="none" xmlns="http://www.w3.org/2000/svg">
<circle cx="30" cy="30" r="30" fill="#392C19"/>
<mask id="mask0_9_7491" style="mask-type:alpha" maskUnits="userSpaceOnUse" x="2" y="4" width="56" height="47">
<path d="M2.69642 33.9611C4.28185 24.9906 10.3037 13.5964 18.5956 6.83294C22.2949 4.89521 31.7369 2.1824 39.9106 6.83294C48.0842 11.4835 57.5263 30.0856 57.5263 33.9611C57.5263 37.8365 55.6767 43.5616 47.133 47.5251C38.5894 51.4886 16.6128 49.7271 13.9704 49.0089C11.3281 48.2908 1.11099 42.9315 2.69642 33.9611Z" fill="#E8D6BC"/>
</mask>
<g mask="url(#mask0_9_7491)">
<path d="M2.79066 33.9611C4.37609 24.9906 10.398 13.5964 18.6899 6.83294C22.3892 4.89521 31.8312 2.1824 40.0048 6.83294C48.1785 11.4835 57.6205 30.0856 57.6205 33.9611C57.6205 37.8365 55.7709 43.5616 47.2273 47.5251C38.6836 51.4886 16.707 49.7271 14.0647 49.0089C11.4223 48.2908 1.20523 42.9315 2.79066 33.9611Z" fill="#E8D6BC"/>
<path d="M27.9103 22.4742C28.4581 22.0395 29.9548 21.4671 32.156 22.2855" stroke="#2B261F" stroke-width="0.155422"/>
<mask id="mask1_9_7491" style="mask-type:alpha" maskUnits="userSpaceOnUse" x="14" y="17" width="15" height="11">
<path d="M26.1567 18.6042C23.6102 16.8702 20.1709 16.9136 16.6187 18.508C13.9624 19.7002 13.4008 24.8225 15.2336 25.8337C18.7469 27.7721 22.7599 27.3785 26.5726 25.1087C28.6474 23.8735 28.2606 20.0368 26.1567 18.6042Z" fill="#D9D9D9" stroke="black" stroke-width="0.155422"/>
</mask>
<g mask="url(#mask1_9_7491)">
<path d="M26.1567 18.6042C23.6102 16.8702 20.1709 16.9136 16.6187 18.508C13.9624 19.7002 13.4008 24.8225 15.2336 25.8337C18.7469 27.7721 22.7599 27.3785 26.5726 25.1087C28.6474 23.8735 28.2606 20.0368 26.1567 18.6042Z" stroke="#2B261F" stroke-width="0.155422"/>
<mask id="mask2_9_7491" style="mask-type:alpha" maskUnits="userSpaceOnUse" x="16" y="20" width="11" height="8">
<path d="M17.6317 22.8822C16.71 24.0879 16.4468 25.3795 16.4468 27.0963C19.782 27.1483 25.6626 27.2212 26.4525 27.0963C26.583 27.0757 27.0225 24.3715 25.5309 22.7261C21.7967 18.6071 18.5533 21.6765 17.6317 22.8822Z" fill="#2B261F"/>
</mask>
<g mask="url(#mask2_9_7491)">
<path d="M17.6317 22.8822C16.71 24.0879 16.4468 25.3795 16.4468 27.0963C19.782 27.1483 25.6626 27.2212 26.4525 27.0963C26.583 27.0757 27.0225 24.3715 25.5309 22.7261C21.7967 18.6071 18.5533 21.6765 17.6317 22.8822Z" fill="white"/>
<path d="M19.9828 22.7786C19.0084 24.0638 18.3682 26.0655 18.4123 27.0432C21.2475 27.5212 26.3696 26.6418 26.666 26.5953C27.0364 26.5372 25.6215 22.5336 23.9468 21.935C23.7145 21.8519 21.2007 21.1721 19.9828 22.7786Z" fill="#2B261F"/>
<circle cx="22.3124" cy="23.9067" r="0.65178" fill="white"/>
<circle cx="21.5307" cy="24.9494" r="0.391068" fill="white"/>
</g>
<path d="M26.1567 18.6042C23.6102 16.8702 20.1709 16.9136 16.6187 18.508C13.9624 19.7002 13.4008 24.8225 15.2336 25.8337C18.7469 27.7721 22.7599 27.3785 26.5726 25.1087C28.6474 23.8735 28.2606 20.0368 26.1567 18.6042Z" stroke="#2B261F" stroke-width="0.155422"/>
</g>
<mask id="mask3_9_7491" style="mask-type:alpha" maskUnits="userSpaceOnUse" x="32" y="16" width="14" height="11">
<path d="M33.4286 18.8463C35.7169 16.8019 39.1103 16.4083 42.8118 17.5398C45.5798 18.386 46.7833 23.3988 45.1063 24.6351C41.8916 27.0052 37.8886 27.124 33.8448 25.3552C31.6442 24.3926 31.538 20.5354 33.4286 18.8463Z" fill="#D9D9D9" stroke="#2B261F" stroke-width="0.155422"/>
</mask>
<g mask="url(#mask3_9_7491)">
<path d="M33.4286 18.8463C35.7169 16.8019 39.1103 16.4083 42.8118 17.5398C45.5798 18.386 46.7833 23.3988 45.1063 24.6351C41.8916 27.0052 37.8886 27.124 33.8448 25.3552C31.6442 24.3926 31.538 20.5354 33.4286 18.8463Z" stroke="#2B261F" stroke-width="0.155422"/>
<mask id="mask4_9_7491" style="mask-type:alpha" maskUnits="userSpaceOnUse" x="34" y="20" width="10" height="7">
<path d="M35.3276 22.701C34.4807 23.809 34.2388 24.9958 34.2388 26.5734C37.3036 26.6212 42.7074 26.6882 43.4332 26.5734C43.5532 26.5545 43.957 24.0695 42.5864 22.5576C39.155 18.7725 36.1745 21.593 35.3276 22.701Z" fill="#2B261F"/>
</mask>
<g mask="url(#mask4_9_7491)">
<path d="M35.3276 22.701C34.4807 23.809 34.2388 24.9958 34.2388 26.5734C37.3036 26.6212 42.7074 26.6882 43.4332 26.5734C43.5532 26.5545 43.957 24.0695 42.5864 22.5576C39.155 18.7725 36.1745 21.593 35.3276 22.701Z" fill="white"/>
<path d="M37.4741 22.7659C36.5905 23.8965 36.0174 25.663 36.0639 26.528C38.6619 26.969 43.3443 26.2239 43.6152 26.1846C43.9539 26.1355 42.6334 22.5852 41.0967 22.045C40.8836 21.9701 38.5785 21.3527 37.4741 22.7659Z" fill="#2B261F"/>
<circle cx="39.6292" cy="23.6424" r="0.598933" fill="white"/>
<circle cx="38.9106" cy="24.6006" r="0.359359" fill="white"/>
</g>
<path d="M33.4286 18.8463C35.7169 16.8019 39.1103 16.4083 42.8118 17.5398C45.5798 18.386 46.7833 23.3988 45.1063 24.6351C41.8916 27.0052 37.8886 27.124 33.8448 25.3552C31.6442 24.3926 31.538 20.5354 33.4286 18.8463Z" stroke="#2B261F" stroke-width="0.155422"/>
</g>
<path d="M25.112 35.7871C25.0579 35.7684 24.9989 35.7971 24.9802 35.8511C24.9615 35.9052 24.9902 35.9642 25.0443 35.9829L25.112 35.7871ZM25.0443 35.9829C27.4473 36.8136 33.4965 37.3503 38.5348 32.8797L38.3973 32.7247C33.4298 37.1324 27.4652 36.6005 25.112 35.7871L25.0443 35.9829Z" fill="black"/>
<path d="M36.7046 32.45C38.1483 33.2427 40.2277 32.45 40.2277 32.45" stroke="black" stroke-width="0.259036" stroke-linecap="round"/>
<path d="M25.1061 29.7836C24.1704 31.4471 24.5593 33.6718 25.0783 35.8852C27.6081 36.2246 33.4766 36.9097 31.5961 35.5329C29.7156 34.1561 28.1561 30.2589 27.8885 29.7836C27.6208 29.3084 26.0418 28.1202 25.1061 29.7836Z" fill="#CD5050" stroke="black" stroke-width="0.155422"/>
<path d="M27.2421 33.9397C27.234 33.9031 27.2282 33.8718 27.2243 33.8456C27.239 33.8634 27.2556 33.885 27.2739 33.9108C27.3234 33.9805 27.3799 34.0719 27.4419 34.1794C27.5474 34.3623 27.666 34.5867 27.7896 34.8206C27.8113 34.8617 27.8332 34.903 27.8552 34.9446C28.0017 35.2211 28.1528 35.5024 28.2931 35.7313C28.3633 35.8458 28.4315 35.9485 28.4959 36.0317C28.5415 36.0906 28.5873 36.1425 28.6325 36.1821C28.5925 36.2613 28.5328 36.3153 28.4636 36.3412C28.3854 36.3706 28.2848 36.3677 28.1701 36.309C27.9781 35.9584 27.6857 35.2701 27.4746 34.6852C27.367 34.387 27.282 34.1196 27.2421 33.9397ZM27.2197 33.7561C27.22 33.7546 27.2202 33.754 27.2203 33.754C27.2203 33.7541 27.2201 33.7549 27.2197 33.7561ZM27.1597 33.7832C27.1588 33.7829 27.1583 33.7826 27.1583 33.7825C27.1583 33.7825 27.1587 33.7827 27.1597 33.7832Z" fill="black" stroke="black" stroke-width="0.155422"/>
<ellipse cx="21.2016" cy="11.2261" rx="5.37278" ry="2.29004" transform="rotate(-17.3756 21.2016 11.2261)" fill="#F8EBD8"/>
<ellipse cx="7.4627" cy="37.7495" rx="2.858" ry="2.07407" transform="rotate(-17.3756 7.4627 37.7495)" fill="#BD3D3D"/>
<ellipse cx="44.2796" cy="32.1123" rx="2.858" ry="2.07407" transform="rotate(-17.3756 44.2796 32.1123)" fill="#BD3D3D"/>
<ellipse cx="43.6268" cy="49.0692" rx="21.3131" ry="11.2232" transform="rotate(160.563 43.6268 49.0692)" fill="#F8EBD8"/>
<path d="M22.2161 15.8572L15.4511 15.8343L17.037 16.1951L16.6764 16.2937L18.2702 16.4821C17.7354 16.4959 16.6308 16.5104 16.4908 16.4579C16.3507 16.4054 15.2303 16.7647 15.2232 16.918C15.4646 16.8331 16.0532 16.6797 16.4776 16.7453C16.9019 16.8108 17.9573 16.8325 18.432 16.8351C17.9242 16.9077 16.9253 17.0768 16.9921 17.172C17.0757 17.291 18.5965 17.1306 18.5077 17.1265C18.4188 17.1224 18.9598 16.9745 19.945 16.847C20.7331 16.745 23.0136 16.5849 24.0553 16.5176L22.6339 16.4523L24.4292 16.1317L20.2458 16.1122L22.2161 15.8572Z" fill="#2B261F"/>
<path d="M37.3175 15.6927L44.0438 14.9691L42.5038 15.4923L42.8727 15.553L41.3069 15.9055C41.8403 15.8638 42.9405 15.7638 43.0743 15.6971C43.2081 15.6304 44.3598 15.8717 44.3826 16.0234C44.1338 15.9639 43.5324 15.8724 43.1172 15.9815C42.7019 16.0907 41.6544 16.2215 41.1825 16.2733C41.6951 16.293 42.7062 16.3577 42.6496 16.4593C42.5788 16.5863 41.0495 16.5842 41.1375 16.571C41.2254 16.5577 40.6721 16.4666 39.679 16.4419C38.8845 16.4221 36.5997 16.4991 35.5566 16.54L36.9636 16.3278L35.1448 16.1949L39.3036 15.7422L37.3175 15.6927Z" fill="#2B261F"/>
</g>
</svg>
